<svg xmlns="http://www.w3.org/2000/svg" viewBox="0 0 256 256"><defs><style>.cls-1{fill:#a2c97b;}</style></defs><title>bc1</title><g id="Layer_5" data-name="Layer 5"><rect class="cls-1" width="256" height="256"/></g><g id="Layer_13_copy" data-name="Layer 13 copy"><path d="M61.19,157.57H86.93c15,0,27.06,3.74,27.06,17.82a15.58,15.58,0,0,1-11.88,15.4v.44c10.12,2,15.18,7.26,15.18,16.72,0,14.74-12.76,21.12-28.16,21.12H61.19Zm25.3,28.16c6.16,0,9-3.08,9-7.48s-2.86-6.16-9-6.16H80.11v13.64Zm1.32,28.82c7.48,0,11-2.86,11-8.14s-3.52-7.48-11-7.48h-7.7v15.62Z"/><path d="M156,156.25c9,0,16.72,4.4,21.78,9.46l-10.34,11.66c-3.52-3.08-6.6-4.84-11.22-4.84-8.58,0-15.84,7.7-15.84,20.68,0,13.42,6.16,20.9,15.4,20.9a16.53,16.53,0,0,0,12.54-5.72l10.34,11.44a29.91,29.91,0,0,1-23.1,10.56c-18.7,0-34.54-12.1-34.54-36.52C121,169.89,137.53,156.25,156,156.25Z"/><path d="M183.51,213.89h15V177.81h-13.2V166.15c7.92-1.54,13-3.52,18.26-6.82h13.86v54.56h12.54v15.18H183.51Z"/></g></svg>