<svg xmlns="http://www.w3.org/2000/svg" viewBox="0 0 256 256"><defs><style>.cls-1{fill:#cc6981;}</style></defs><title>bc2</title><g id="Layer_5_copy" data-name="Layer 5 copy"><rect class="cls-1" width="256" height="256"/></g><g id="Layer_13_copy_2" data-name="Layer 13 copy 2"><path d="M60.75,157.57H86.49c15,0,27.06,3.74,27.06,17.82a15.58,15.58,0,0,1-11.88,15.4v.44c10.12,2,15.18,7.26,15.18,16.72,0,14.74-12.76,21.12-28.16,21.12H60.75Zm25.3,28.16c6.16,0,9-3.08,9-7.48s-2.86-6.16-9-6.16H79.67v13.64Zm1.32,28.82c7.48,0,11-2.86,11-8.14s-3.52-7.48-11-7.48h-7.7v15.62Z"/><path d="M155.57,156.25c9,0,16.72,4.4,21.78,9.46L167,177.37c-3.52-3.08-6.6-4.84-11.22-4.84-8.58,0-15.84,7.7-15.84,20.68,0,13.42,6.16,20.9,15.4,20.9a16.53,16.53,0,0,0,12.54-5.72l10.34,11.44a29.91,29.91,0,0,1-23.1,10.56c-18.7,0-34.54-12.1-34.54-36.52C120.59,169.89,137.09,156.25,155.57,156.25Z"/><path d="M179.77,218.29C196.27,203.11,209,191.45,209,182c0-6.27-3.52-9.24-8.58-9.24-4.62,0-8.14,3.3-11.44,6.6l-10.12-10.12c7.26-7.7,13.86-11.22,24.2-11.22,14.08,0,24,9,24,22.88,0,11.22-10.56,23.54-20,33.22a112.2,112.2,0,0,1,11.66-.88h11.66v15.84h-50.6Z"/></g></svg>