<svg xmlns="http://www.w3.org/2000/svg" viewBox="0 0 132.45 107.32"><defs><style>.cls-1{fill:#7a8f99;}.cls-2{fill:#f0f0f0;}</style></defs><title>docdeck</title><g id="Layer_1_copy_9" data-name="Layer 1 copy 9"><path class="cls-1" d="M283.29,274.23A47.87,47.87,0,0,1,276,288.82a43.16,43.16,0,0,1-10.72,10.12,58.28,58.28,0,0,1-13,6.4,71.52,71.52,0,0,1-14.14,3.35,107.31,107.31,0,0,1-14.14,1H174.71v-1.49a26.38,26.38,0,0,0,7.22-1.94,14.08,14.08,0,0,0,5.28-3.57,5,5,0,0,0,1.12-2.53q.37-1.79.67-4t.45-4.76q.15-2.53.15-4.91,0-2.08.07-5.66t.15-7.82q.07-4.24.07-8.71v-43q0-2.68-.22-5a30.56,30.56,0,0,0-.67-4.17,6.88,6.88,0,0,0-1.34-2.9,11.72,11.72,0,0,0-5.36-3.72,34.82,34.82,0,0,0-7-1.49v-1.49q6.25,0,18-.07c7.84,0,12.32-.07,23.43-.07h9.53q4.91,0,9.82.45a84.21,84.21,0,0,1,9.82,1.49,50.09,50.09,0,0,1,9.68,3.13,55.84,55.84,0,0,1,11.76,6.85,45.57,45.57,0,0,1,9.6,9.9,48.6,48.6,0,0,1,6.55,13.25A55.31,55.31,0,0,1,286,254.59,65.34,65.34,0,0,1,283.29,274.23Zm-17.81-33.67a55.21,55.21,0,0,0-7.94-14.81,47.79,47.79,0,0,0-11.31-11.24,34.9,34.9,0,0,0-14.29-6q-3-.59-6.55-1a87.39,87.39,0,0,0-8.78-.37q-1.79,0-3.87.07t-4.09.3q-2,.22-3.72.37a15.21,15.21,0,0,0-2.75.45q-.75,7.29-.89,20.1c-.1,8.54-.15,16.21-.15,28v14.92q0,7.74.15,12.65,0,2.09.22,4.54t.52,4.76a19.68,19.68,0,0,0,1,4.17,7.44,7.44,0,0,0,1.56,2.75,13.77,13.77,0,0,0,7.52,3.8,48.24,48.24,0,0,0,8.56.82q3.72,0,7.67-.37a37.19,37.19,0,0,0,7.37-1.41q16.08-4.61,24-17.94c5.31-8.88,8-17.32,8-30.32A39,39,0,0,0,265.48,240.56Z" transform="translate(-153.51 -202.34)"/></g><g id="Layer_1_copy_8" data-name="Layer 1 copy 8"><path class="cls-2" d="M236.26,270.09a37,37,0,0,1-5.63,11.27,33.34,33.34,0,0,1-8.28,7.82,45,45,0,0,1-10,4.94,55.94,55.94,0,0,1-10.92,2.59,82.91,82.91,0,0,1-10.93.75h-37v-1.15a20.38,20.38,0,0,0,5.58-1.5,10.88,10.88,0,0,0,4.08-2.76,3.88,3.88,0,0,0,.86-2q.29-1.38.52-3.1t.35-3.68q.11-2,.11-3.79,0-1.61.06-4.37t.12-6q.06-3.28.06-6.73V229.15q0-2.07-.17-3.85a23.61,23.61,0,0,0-.52-3.22,5.31,5.31,0,0,0-1-2.24,9.05,9.05,0,0,0-4.14-2.87,26.9,26.9,0,0,0-5.41-1.15v-1.15q4.83,0,13.92-.06c6.06,0,8.38-.06,17-.06h7.36q3.79,0,7.59.35a65.06,65.06,0,0,1,7.59,1.15,38.7,38.7,0,0,1,7.47,2.42,43.27,43.27,0,0,1,9.08,5.29,35.21,35.21,0,0,1,7.42,7.65,37.55,37.55,0,0,1,5.06,10.23,42.73,42.73,0,0,1,1.9,13.28A50.48,50.48,0,0,1,236.26,270.09Zm-14.15-25.44a41.68,41.68,0,0,0-5.75-11.44,36.92,36.92,0,0,0-8.74-8.68,27,27,0,0,0-11-4.6q-2.3-.46-5.06-.75a67.51,67.51,0,0,0-6.79-.29q-1.38,0-3,.06t-3.16.23q-1.55.17-2.87.29a11.75,11.75,0,0,0-2.13.35q-.58,5.64-.69,15.52c-.08,6.59-.12,11-.12,20.07v12q0,6,.12,9.77,0,1.61.17,3.51t.4,3.68a15.2,15.2,0,0,0,.75,3.22,5.75,5.75,0,0,0,1.21,2.13,10.63,10.63,0,0,0,5.81,2.93,37.27,37.27,0,0,0,6.61.63q2.87,0,5.92-.29a28.73,28.73,0,0,0,5.69-1.09Q211.88,288.29,218,278c4.1-6.86,5.65-12.81,5.65-22.86A27.1,27.1,0,0,0,222.11,244.64Z" transform="translate(-153.51 -202.34)"/></g><g id="Layer_13" data-name="Layer 13"><path class="cls-1" d="M196.49,303l3.16-.07c.5,0,.84,0,1.06,0s.63-.2,1.23-.35c1.33-.34,2.63-.67,3.95-1.05a13.12,13.12,0,0,1-1.36-1.17,7.44,7.44,0,0,1-1.56-2.75,19.68,19.68,0,0,1-1-4.17q-.3-2.31-.52-4.76t-.22-4.54c0-.89-.05-1.86-.07-2.89a20.89,20.89,0,0,1-7.52,1.77,16,16,0,0,1-4-.34c0,1.53,0,2.81,0,3.82q0,2.38-.15,4.91t-.45,4.76q-.3,2.23-.67,4a7.83,7.83,0,0,1-.43,1.43C190.77,301.92,193.64,302.41,196.49,303Z" transform="translate(-153.51 -202.34)"/></g></svg>