<svg id="Layer_1" data-name="Layer 1" xmlns="http://www.w3.org/2000/svg" viewBox="0 0 366.28 349.56"><defs><style>.cls-1{fill:#7a1501;}.cls-2{fill:#231f20;}.cls-3{fill:#b22017;}.cls-4{fill:#ac1809;}.cls-5{fill:#b73228;}.cls-6{fill:#b9352d;}.cls-7{fill:#ba4145;}.cls-8{fill:#bc443a;}.cls-9{fill:#d4af28;}.cls-10{fill:#fbd90c;}.cls-11{fill:#b32018;}.cls-12{fill:#b02017;}.cls-13{fill:#6f0900;}.cls-14{fill:#b41e16;}.cls-15{fill:#fefefe;}.cls-16{fill:#fdfdfd;}.cls-17{fill:#fdfdfc;}.cls-18{fill:#f8f8f8;}.cls-19{fill:#e6e6e6;}.cls-20{fill:#e5e4e4;}.cls-21{fill:#211f1f;}.cls-22{fill:#1a1516;}.cls-23{fill:#221b1e;}.cls-24{fill:#181415;}.cls-25{fill:#151210;}.cls-26{fill:#161314;}.cls-27{fill:#161414;}.cls-28{fill:#120e0f;}.cls-29{fill:#141212;}.cls-30{fill:#110d0d;}.cls-31{fill:#100d0d;}.cls-32{fill:#110c0d;}</style></defs><title>logo_home</title><path class="cls-1" d="M315.17,163.65c2.9,10.37,4.72,20.94,6.52,32.15a92.55,92.55,0,0,0-12.31-1.31c-14.55,0-25,6.93-30.91,19.74-6.89,14.84-7.33,30.51-3.3,46.31a331.22,331.22,0,0,0,26.94,58.59q7.06,12,14.75,23.67c1.32,2,3.24,3.92,2.37,6.75h-264c-1.38-2,.19-3.48,1.12-4.93,8.17-12.75,16.09-25.64,23.23-39a276.83,276.83,0,0,0,20.08-48.73c.34-1.08-.29-2.35.58-3.35l.82-1.2c.93,1,.56,2.18.66,3.31,0-1.15.28-2.35-.66-3.31.6-10.81.5-21.54-2.88-32C92,201.19,77,191.94,57,195.06l-3,.44,4.53-23.82c1.95-.65,3.55.41,5.21,1.09,14.48,6,29.46,8.82,45.17,7.56,2.56-.21,5.75-1.33,7.47,2.07-1.33,1.1-2.75.49-4.27.52,3.43.72,6.61-1.18,9.89-.73,1.8,0,3.61.07,5.4-.11a63.28,63.28,0,0,0,53.07-55.41c.52-4.59,1.37-9.29-1.54-13.53,2-2.62,4.11-1.92,6.27-.25,1.49,4.14.58,8.49,1,12.75,2.87,26,16.74,43.4,40.72,53.14,9,3.58,18.53,3.26,26.63,4.29-1.52,0-1.52,0-3.61-1.47,2.25-2.05,5-1.41,7.62-1.38,9.34.12,18.6-.32,27.7-2.62,9.46-2.39,18.26-6.11,25.84-12.42C312.33,164.23,313.44,163.07,315.17,163.65Z"/><path class="cls-2" d="M185.25,113.64c-2-1-4-1.75-6.09-.19-7.78,7.07-10.57,16.64-13.23,26.3-1,3.53-2.18,7-3.43,10.43-7.21,19.84-26,31.4-44.95,32.85a1.39,1.39,0,0,1-1.25-.63c-2.46-1.61-5.22-.85-7.76-.65a91.46,91.46,0,0,1-50-10.07c-10.15-6-16.94-14.76-21.56-25.44-3.63-8.39-7.24-16.79-11.22-25a44.89,44.89,0,0,0-15.57-18.3V79.31H69.68c6.54-2.46,13.33-.84,20-1.18,1.42.22,2.88.35,3.71,1.78-.27,1.55-1.27.9-2,1.18,3-.37,5.91-1.1,8.88-1.69,11.6-.56,23.06,1.14,34.57,2.09,5.76.47,11.48,1.36,17.25,1.83,6.77.82,13.55,1.62,20.38,1.81,8.2-.49,16.43.54,24.62-.58,5.73-.51,11.47-.87,17.2-1.45,14.87-1.09,29.73-2.36,44.6-3.57a44.46,44.46,0,0,1,10.41-.12c2.72.76,5.43,1.41,8-.44a43.77,43.77,0,0,1,19.66.12c19-.56,37.91-.8,57.14.13V103c-12,8.72-17.13,22.08-23.13,34.84-4.32,9.2-8.65,18.37-15.78,25.85-14.76,13.39-32.64,17.74-52,18-4.33,0-8.66,0-13,.07-4.63,2.07-9,0-13.47-.84a40.53,40.53,0,0,1-7.07-2.2c-18.65-7.19-27.1-22.52-32.05-40.51C195.15,129.09,192.46,120.25,185.25,113.64Z"/><path class="cls-1" d="M197.32,85.74c-8.36,1.58-16.78.66-25.18.68-3.81-3-6.38-7.19-9.86-10.55-9-8.66-19.29-14.58-31.66-16.84-6.22-1.14-12.46-2.17-18.63-3.55-1.87-.42-4.55,0-4.92-3.06,11.93-17.81,26.39-33,45.54-43.13C175.95-3,199.56-3.09,222.93,9.1,242,19,256.41,34,268.28,51.7c.83,3.16-1.88,3.15-3.52,3.45-6.35,1.17-12.61,2.62-19.18,2.84-18.06.59-33,8.14-44.82,21.79C199.26,81.51,197.65,83.28,197.32,85.74Z"/><path class="cls-3" d="M328.13,245.56c.71,18.62,1.67,37.24,1.17,55.88-.39,14.64-.87,29.28-1.32,43.92a5.57,5.57,0,0,1-.77,2.86c-17.89-29.65-35-59.5-41.85-94-.24-8.83-.39-17.63,2.29-26.22,5-16.09,14.88-21.34,31-16.39,1.89.58,3.7,1.38,5.91,2.22Z"/><path class="cls-3" d="M65.42,315.64c-4.64,10.46-10.71,20.12-16.45,30-1.79-1.19-.57-3-1.57-4.17-.22-10.49-.38-21-.68-31.46a596.67,596.67,0,0,1,4.48-94.76c.08-.64.25-1.28.41-2.07a32.65,32.65,0,0,1,15-3.23c7.82.15,13.6,3.74,17,10.85,2.82,5.9,4.86,12,4.73,18.68a97.73,97.73,0,0,0,0,12.07A31.45,31.45,0,0,1,87,262.93a222.78,222.78,0,0,1-19.63,48.91C65.07,312.28,65.38,314,65.42,315.64Z"/><path class="cls-3" d="M107.08,52.43c7,3.36,14.7,3.65,22.1,4.92,18.3,3.15,31.88,13.1,42.63,27.64a3.9,3.9,0,0,1,.33,1.43c-6.73-.1-13.44-.32-20-2-2.83-1.12-4.91-3.39-7.47-4.94Q121.54,65.54,97,76.73c-2.26,1-4.56,1.9-6.84,2.87l-20.46-.29L79,69.56C50,66.77,25.2,55.68,5,34.94c-.25-1.67.4-2.09,1.88-1.35C28.14,47.16,50.71,57.36,76,60.7c1.87.84,3.79.05,5.68.16a9.52,9.52,0,0,0,1.88.62,27.34,27.34,0,0,1,3.64.31c-.38.14-1.41-.37-2.44-.25a7.32,7.32,0,0,1-4.54-1.91c-11-3.89-21.73-8.34-31.62-14.68C34.34,35.82,23.71,23.46,15.34,9c-.2-.35,0-1,.08-1.45.28-.37.55-.39.82,0a5.55,5.55,0,0,1,1.66,1C35.65,30.76,59.84,42,86.69,48.54,93.4,50.19,100,52.49,107.08,52.43Z"/><path class="cls-3" d="M197.32,85.74c-2.32-.42-1.49-1.76-.71-2.84,9.75-13.59,23-21.76,39.23-25.3,8.41-1.84,17.24-.41,25.58-3,2.37-.75,5.42.14,6.86-2.85a3.62,3.62,0,0,0,2.77.77c25.51-5.79,49.88-14,69.11-32.9,3.54-3.48,6.72-7.32,10.07-11,.93-.24,1.4,0,1,1-10.51,21.86-28,36.24-49.71,45.89-5.29,2.35-10.84,4.13-16.27,6.18a6.34,6.34,0,0,1-2.79,1.48c.62.41.94-.37,1.47-.32,1.83,0,3.66.74,5.43-.17,24.45-3.26,46.71-12.29,67.31-25.65,1.38-.9,2.79-1.76,4.19-2.64,1.24-.23,1.74.27,1.51,1.51-19.71,20.62-43.93,32-72.89,35.21l7.45,8c-6.62,1.23-13.45-.55-20,1.42a1.26,1.26,0,0,1-1.43-.09c-17.39-11.64-37.74-11.56-55,.23a38.53,38.53,0,0,1-6.38,3.84Z"/><path class="cls-4" d="M88.36,251.6a14.23,14.23,0,0,1,0-12.07l.83,3C88.43,245.53,89.49,248.66,88.36,251.6Z"/><path class="cls-5" d="M6.89,33.59A2.06,2.06,0,0,0,5,34.94a19.22,19.22,0,0,1-5-5.32C3.45,29.57,5.07,31.76,6.89,33.59Z"/><path class="cls-6" d="M362.39,35.87l-1.51-1.51a15.31,15.31,0,0,1,5.41-4C366,33.3,364.17,34.56,362.39,35.87Z"/><path class="cls-7" d="M16.24,7.54l-.41.08-.41-.08a4.58,4.58,0,0,1-2-3.61C15.77,4.14,16,5.86,16.24,7.54Z"/><path class="cls-8" d="M351.24,9.59l-1-1a4.48,4.48,0,0,1,2.63-3.07A4.63,4.63,0,0,1,351.24,9.59Z"/><path class="cls-9" d="M208.26,193.44c8.52,16.36,5.31,40.44-7.14,53.7-11.59,12.34-27.93,12.39-39.58.12-12.34-13-15.68-37.58-7.31-53.72.9.42,1.56,1.34,2.55,1.5,10.76,1.8,17.35,9,22.85,17.61a1.69,1.69,0,0,0,1.27.92c1.91-1.27,2.66-3.56,4.06-5.35,5-6.44,10.86-11.64,19.31-12.87C205.85,195.12,207,194.15,208.26,193.44Z"/><path class="cls-10" d="M208.26,193.44c-.18.94.14,2-1,2.81-13.21.54-19.87,10.13-26.59,20.65a47.38,47.38,0,0,0-10.81-14.23c-3.69-3.24-7.68-5.88-12.75-6.09-2.18-.09-3-1-2.84-3,.32-.76.59-1.56,1-2.29,5.71-10.81,13.73-18.87,26.77-18.44C195.36,173.25,203.13,181.91,208.26,193.44Z"/><path class="cls-3" d="M116.3,182.4c23.71-3.41,40.56-15,47.19-39.12,1.84-6.7,3.71-13.44,6.61-19.81,2-4.29,4.27-8.28,9.07-10,2,0,3,.72,3.06,2.94.47,17.16-4.52,32.39-15.77,45.46-10.16,11.8-23.11,18.68-38.3,21.57a8.6,8.6,0,0,0-5.93.13H110.73C112.78,181.92,114.66,182.86,116.3,182.4Z"/><path class="cls-3" d="M185.25,113.64c5.7,2.25,8,7.32,9.88,12.48,2.68,7.33,5,14.8,7.41,22.21,4.55,13.79,13.87,23.17,26.9,29.13a5.46,5.46,0,0,1-3.23,2.13C199.54,171.14,181.25,141.19,185.25,113.64Z"/><path class="cls-11" d="M226.21,179.59c.11-2.17,1.77-2,3.23-2.13,6.86,1.75,13.62,4,20.79,4.21,1.66,1.76,4.23,0,6.4,1.78C246,183.75,235.77,184.28,226.21,179.59Z"/><path class="cls-12" d="M122.22,183.55a4.68,4.68,0,0,1,5.93-.13Z"/><path class="cls-13" d="M101,252.35c1.57,1.22,1.2,2.71.4,4.25l-.4-4.24Z"/><path class="cls-14" d="M65.42,315.64c-1.35-2.27-.89-3.64,1.93-3.8Z"/><path class="cls-15" d="M130.23,169.67c-5,3.38-11,2-16.32,3.73-.51.73-1.08.78-1.69.12l-21-.94c-.33.38-.61.36-.84-.1-7.21-1.9-14.54-3.25-21.55-6a37.78,37.78,0,0,1-21.09-19.44,94.87,94.87,0,0,1-9.48-37.93,34.85,34.85,0,0,1,.33-6.47c1.3-8.84,5.16-12.54,14-13.26A272.82,272.82,0,0,1,109.36,91c5.59.71,11.23,1.06,16.85,1.57.31-.43.57-.38.78.09l9.14,1.9c11,2.26,19,7.85,21.91,19.31,1.13,1.15.73,2.4.25,3.66v2c.51,1.26.86,2.51-.22,3.68-2.63,12.26-6.74,23.92-13.57,34.56-.67,1.05-2,1.45-2.22,2.76C139.93,165.81,135.76,168.64,130.23,169.67Z"/><path class="cls-15" d="M324.86,98.7c1.35,4.53,1.13,9.21,1.32,13.85.53.61.73,1.19-.16,1.66a212.93,212.93,0,0,1-7.23,26.92C314,154.71,305.2,163.79,291.18,168c-6,1.8-11.91,3.77-18.16,4.48q-.32.71-.8.09c-10.3.56-20.56,1.35-30.83-.84-11-2.33-19.25-8-24.43-18-5.39-10.39-10-21.12-10.82-33-.89-12.3,4.14-19.9,15.75-24.16C232.5,92.7,243.76,92.52,254.8,91a261.41,261.41,0,0,1,55.33-1.71c5,.38,9.43,1.84,12.91,5.61A3.21,3.21,0,0,1,324.86,98.7Z"/><path class="cls-16" d="M214.09,84.48c14.78-16,44.1-18.82,61.35-5.87a5.69,5.69,0,0,1,1,1.59c-2,1.61-4.12.81-6.24.44C254.11,80.85,238.1,82.89,222,84,219.39,84.2,216.74,84.32,214.09,84.48Z"/><path class="cls-17" d="M90.14,79.59c17.87-13.31,45-11.92,61,3.15a6.85,6.85,0,0,1,1,1.66C143,84.54,134.05,82.52,125,82c-8.59-.46-17.13-1.7-25.76-1.41-1.92.52-3.83.88-5.69-.22Z"/><path class="cls-2" d="M324.86,98.7c-.72-1.21-1.78-2.25-1.83-3.78,2-2.27-.13-4.29-.63-6.79,2.72,1.16,5.23-1.74,8,.74-1.3,1.63-.64,3.35.33,5,1.16.95,2.51.54,3.8.51a42,42,0,0,1,12.49-3L349,90.18c-.36,2.53-.73,4.9,1.12,6.45a4.16,4.16,0,0,1-3.07,3.71c-1.44-2.17-2.27-5.7-6.1-4.47-1.16,2,1.59,2.29,1.59,3.83-3.15,1.9-4.17-.77-5.91-2.5-1.65,2.79-4.15,3.41-7.24,2.26a5.45,5.45,0,0,0-2.74-3.59C325,96.14,326.7,98.6,324.86,98.7Z"/><path class="cls-18" d="M170.12,114.32l-1.94,1.38-1.64-25.4c3.07-1,6.1-.44,9.92-.48-6,6.82-2.57,13.74-1.64,20.55A9.1,9.1,0,0,1,170.12,114.32Z"/><path class="cls-19" d="M347,91.47c-3.75,2.74-8.14,2.76-12.49,3l-3.21-1.11A13,13,0,0,1,347,91.47Z"/><path class="cls-20" d="M34,92.78c-6.89,2.51-12,1.68-17.91-1.92C22.67,88.76,27.73,89.79,34,92.78Z"/><path class="cls-21" d="M130.23,169.67c4.38-2.55,8.9-4.92,12-9.1C142.15,165.45,134.92,170.92,130.23,169.67Z"/><path class="cls-22" d="M112.22,173.52l1.69-.12,5.33.42c-6,1.25-11.91,2.4-18.54,1.4C104.78,173.54,108.84,175.92,112.22,173.52Z"/><path class="cls-23" d="M170.12,114.32a8.37,8.37,0,0,1,4.71-4C174.83,113.16,173.84,114,170.12,114.32Z"/><path class="cls-24" d="M205,115v8.36A12.39,12.39,0,0,1,205,115Z"/><path class="cls-25" d="M93.52,80.4l5.69.22c-2.87,1.81-5.93.66-9,.31Z"/><path class="cls-26" d="M158.06,123.25l.22-3.68c1.63,1.78.79,3.84.8,5.95C157.77,125.06,158.48,123.91,158.06,123.25Z"/><path class="cls-27" d="M270.23,80.64l6.24-.44a.92.92,0,0,0,.47.29C274.74,82.26,272.5,81.91,270.23,80.64Z"/><path class="cls-28" d="M127,92.67l-.41.14-.37-.23c1.5-1.59,3.23-1,5-.29Z"/><path class="cls-29" d="M158.29,117.54l-.25-3.66.51-1.27C159.08,114.31,159.77,116,158.29,117.54Z"/><path class="cls-30" d="M272.22,172.55a.56.56,0,0,1,.8-.09l3.57.42C274.79,173.88,273.44,173.88,272.22,172.55Z"/><path class="cls-31" d="M326,114.21l.16-1.66c1.38,1.08,1.15,2.46.61,4.53Z"/><path class="cls-32" d="M90.38,172.48a.61.61,0,0,1,.84.1c-1.18,1.3-2.54,1.2-4.59.37Z"/></svg>