<svg xmlns="http://www.w3.org/2000/svg" viewBox="0 0 256 256"><defs><style>.cls-1{fill:#ede57a;}</style></defs><title>js1</title><g id="Layer_5_copy_2" data-name="Layer 5 copy 2"><rect class="cls-1" width="256" height="256"/></g><g id="Layer_13" data-name="Layer 13"><path d="M76.81,207.29c2.42,4.62,5.94,6.82,9,6.82,5.06,0,7.92-2.42,7.92-11.44v-45.1h18.92v46.64c0,14.3-7.7,26.18-24.2,26.18-11.66,0-19.14-4.4-24.42-13.53Z"/><path d="M130.05,207.18c5.06,4.07,11.44,6.93,16.72,6.93,5.72,0,8.14-1.87,8.14-5.06,0-3.41-3.63-4.51-9.68-6.93l-8.91-3.74c-7.7-3.08-14.41-9.57-14.41-19.91,0-12.21,11-22.22,26.62-22.22a34.37,34.37,0,0,1,23.76,9.57l-9.46,11.88c-4.84-3.41-9-5.17-14.3-5.17-4.62,0-7.48,1.65-7.48,4.84,0,3.41,4.07,4.62,10.56,7.15l8.69,3.41c8.91,3.52,14,9.68,14,19.58,0,12.1-10.12,22.88-27.94,22.88a41.41,41.41,0,0,1-27.06-10.23Z"/><path d="M180.65,213.89h15V177.81h-13.2V166.15c7.92-1.54,13-3.52,18.26-6.82h13.86v54.56h12.54v15.18H180.65Z"/></g></svg>